#!OML:ASF F:\twosubjects\two\Thursday\Session 1\Rory.ASF
:FULLY-SPECIFIED
:DEGREES
663
root 14.792 9.25377 5.19996 315.092 -86.4147 -321.35
lowerback 30.329 0.850887 -2.80232
upperback 6.76253 -0.424233 -0.152809
thorax -9.02405 -0.411571 1.64929
lowerneck -14.5289 2.20486 1.7436
upperneck -1.75107 2.47729 -0.266546
head 1.95373 1.14898 -0.239364
rclavicle -7.16867e-015 -4.77083e-015
rhumerus -31.9749 -15.5302 -67.9417
rradius 42.4609
rwrist 18.0591
rhand -24.0382 36.0703
rfingers 7.12502
rthumb 2.44045 6.1045
lclavicle -7.16867e-015 -4.77083e-015
lhumerus -27.3254 16.6206 68.2701
lradius 32.3355
lwrist -18.9754
lhand -11.6 23.5844
lfingers 7.12502
lthumb 14.4424 53.0619
rfemur -243.939 -118.435 167.94
rtibia 143.089
rfoot -43.7662 37.32
rtoes -35.9846
lfemur -55.3126 63.3717 12.6806
ltibia 141.188
lfoot -37.4934 -51.343
ltoes -27.0735
664
root 14.8005 9.39463 5.19889 310.47 -86.1645 -316.574
lowerback 30.2988 0.875308 -3.36237
upperback 6.5866 -0.562536 -0.250635
thorax -9.1995 -0.453909 1.91433
lowerneck -14.3701 2.34556 1.99593
upperneck -1.71122 2.63662 -0.472974
head 1.94812 1.223 -0.340562
rclavicle 6.16232e-015 1.03865e-014
rhumerus -32.0231 -14.9314 -68.3335
rradius 42.2921
rwrist 17.6525
rhand -24.5029 35.8593
rfingers 7.12502
rthumb 1.99165 5.88889
lclavicle 6.16232e-015 1.03865e-014
lhumerus -27.8722 16.1293 68.4524
lradius 32.703
lwrist -17.9851
lhand -11.428 24.8928
lfingers 7.12502
lthumb 14.6082 54.3583
rfemur -244.998 -120.621 169.625
rtibia 142.163
rfoot -42.9273 36.3333
rtoes -35.9587
lfemur -56.6786 60.8835 9.74423
ltibia 140.279
lfoot -37.8217 -49.4705
ltoes -29.1417
665
root 14.8068 9.53887 5.19365 309.903 -86.2343 -315.846
lowerback 30.2482 0.920885 -3.45559
upperback 6.47073 -0.522366 -0.252906
thorax -9.30871 -0.424851 1.95076
lowerneck -14.4541 2.34801 2.10865
upperneck -1.75799 2.6167 -0.494215
head 1.94945 1.21024 -0.367572
rclavicle -3.03147e-015 1.86236e-014
rhumerus -32.0519 -15.0819 -68.5358
rradius 42.0439
rwrist 17.7167
rhand -24.8911 35.6087
rfingers 7.12502
rthumb 1.61673 5.63503
lclavicle -3.03147e-015 1.86236e-014
lhumerus -27.9537 15.8276 68.6296
lradius 32.5638
lwrist -17.5204
lhand -11.5843 25.3873
lfingers 7.12502
lthumb 14.4575 54.8636
rfemur -245.8 -123.385 171.753
rtibia 141.147
rfoot -41.7708 35.2163
rtoes -35.9263
lfemur -57.5567 57.9529 7.75964
ltibia 138.967
lfoot -30.212 -52.3856
ltoes -20.3456
666
root 14.7994 9.67929 5.1843 311.979 -86.5591 -317.832
lowerback 29.9539 0.953259 -3.3387
upperback 6.52766 -0.413258 -0.0955638
thorax -9.10596 -0.379488 2.01715
lowerneck -14.4523 2.22456 2.02982
upperneck -2.1715 2.45266 -0.484149
head 1.8063 1.12123 -0.362523
rclavicle 1.06847e-015 1.74931e-014
rhumerus -31.9493 -15.1144 -68.686
rradius 41.9563
rwrist 17.6284
rhand -25.1489 35.7651
rfingers 7.12502
rthumb 1.36778 5.78974
lclavicle 1.06847e-015 1.74931e-014
lhumerus -27.7928 16.5573 68.7509
lradius 32.0396
lwrist -18.1078
lhand -12.0097 25.3875
lfingers 7.12502
lthumb 14.0476 54.8928
rfemur -245.937 -127.073 173.862
rtibia 140.027
rfoot -40.9075 33.4766
rtoes -36.2466
lfemur -57.635 55.9764 7.18224
ltibia 137.928
lfoot -31.1487 -51.549
ltoes -22.9031
667
root 14.7828 9.82553 5.17707 313.228 -86.8016 -318.948
lowerback 29.5352 0.981514 -3.26974
upperback 6.52354 -0.326697 -0.0566055
thorax -8.91166 -0.340145 1.98503
lowerneck -14.4736 2.15306 2.21805
upperneck -2.22719 2.32494 -0.520206
head 1.79334 1.05398 -0.414248
rclavicle 2.72087e-015 -7.24322e-015
rhumerus -32.0909 -15.2071 -68.9413
rradius 41.9531
rwrist 17.4694
rhand -25.5761 35.708
rfingers 7.12502
rthumb 0.955152 5.73041
lclavicle 2.72087e-015 -7.24322e-015
lhumerus -27.8278 16.9996 68.7271
lradius 31.5998
lwrist -18.5195
lhand -12.3439 25.1156
lfingers 7.12502
lthumb 13.7256 54.6429
rfemur -245.548 -129.779 175.33
rtibia 138.833
rfoot -40.9434 31.4646
rtoes -37.4956
lfemur -57.5554 54.0059 6.42459
ltibia 136.816
lfoot -31.3376 -50.7227
ltoes -23.3943
668
root 14.775 9.97325 5.18081 317.678 -86.9242 -323.367
lowerback 29.4106 0.83615 -2.91865
upperback 6.43663 -0.395924 -0.0809056
thorax -8.94888 -0.373578 1.77842
lowerneck -14.6225 2.17396 2.46055
upperneck -2.01003 2.31293 -0.560325
head 1.89736 1.04818 -0.468079
rclavicle 1.29955e-014 5.55355e-015
rhumerus -32.3762 -15.2803 -69.1734
rradius 41.8653
rwrist 17.5373
rhand -25.7859 35.4177
rfingers 7.12502
rthumb 0.752498 5.43926
lclavicle 1.29955e-014 5.55355e-015
lhumerus -28.1217 16.8728 68.7497
lradius 31.5019
lwrist -18.1881
lhand -12.6319 24.9929
lfingers 7.12502
lthumb 13.448 54.5388
rfemur -244.748 -131.725 176.369
rtibia 137.631
rfoot -40.8803 29.8594
rtoes -38.5611
lfemur -57.2838 52.0055 5.73973
ltibia 135.604
lfoot -27.7696 -51.3562
ltoes -18.08
669
root 14.7776 10.1198 5.18578 319.351 -86.8335 -325.129
lowerback 29.552 0.751481 -2.81541
upperback 6.3789 -0.473416 -0.0584295
thorax -9.08052 -0.407673 1.77384
lowerneck -14.7724 2.08579 2.19797
upperneck -2.03296 2.22325 -0.301902
head 1.90689 1.01058 -0.344254
rclavicle -4.7289e-016 -7.442e-015
rhumerus -32.5501 -15.2969 -69.2108
rradius 41.7345
rwrist 17.7626
rhand -25.8734 35.4484
rfingers 7.12502
rthumb 0.668043 5.46966
lclavicle -4.7289e-016 -7.442e-015
lhumerus -28.3262 16.9061 68.9294
lradius 31.4284
lwrist -18.241
lhand -12.1514 24.7353
lfingers 7.12502
lthumb 13.9111 54.25
rfemur -243.929 -133.885 177.031
rtibia 136.473
rfoot -40.2319 28.7129
rtoes -38.5829
lfemur -57.0758 49.4613 4.61459
ltibia 134.382
lfoot -26.5461 -50.5978
ltoes -16.5822
670
root 14.7737 10.2679 5.18822 317.418 -86.7004 -323.164
lowerback 29.49 0.841372 -2.9864
upperback 6.35243 -0.396673 0.00510392
thorax -9.08208 -0.365392 1.91597
lowerneck -15.147 1.91409 1.7145
upperneck -1.93723 2.0537 0.00846107
head 1.99336 0.936583 -0.168451
rclavicle 2.98177e-015 -7.55382e-015
rhumerus -32.6194 -15.472 -69.0122
rradius 41.554
rwrist 17.842
rhand -25.8711 34.9537
rfingers 7.12502
rthumb 0.670263 4.975
lclavicle 2.98177e-015 -7.55382e-015
lhumerus -28.1994 17.1776 69.2573
lradius 31.0257
lwrist -18.8184
lhand -11.7604 24.6397
lfingers 7.12502
lthumb 14.2878 54.1282
rfemur -243.327 -136.079 177.628
rtibia 135.306
rfoot -39.3581 27.7171
rtoes -38.0548
lfemur -56.9796 47.2234 3.26178
ltibia 133.219
lfoot -28.7197 -48.5368
ltoes -20.7841
671
root 14.7622 10.4219 5.19177 318.887 -86.8898 -324.555
lowerback 29.1888 0.881761 -2.80609
upperback 6.37162 -0.267961 0.0787865
thorax -8.91983 -0.309378 1.84492
lowerneck -15.4904 1.88566 1.6895
upperneck -1.84619 2.01071 -0.0502009
head 2.08615 0.912099 -0.182857
rclavicle 1.49089e-015 8.44835e-015
rhumerus -32.6585 -15.8075 -68.9103
rradius 41.3839
rwrist 17.835
rhand -25.5841 34.5505
rfingers 7.12502
rthumb 0.947418 4.57283
lclavicle 1.49089e-015 8.44835e-015
lhumerus -28.0374 17.6781 69.4129
lradius 30.6498
lwrist -19.5337
lhand -11.944 24.8819
lfingers 7.12502
lthumb 14.111 54.3828
rfemur -242.775 -138.264 178.722
rtibia 134.059
rfoot -38.1687 26.9902
rtoes -36.4507
lfemur -56.6538 45.3829 2.66955
ltibia 132.065
lfoot -29.64 -47.2578
ltoes -22.5965
672
root 14.7548 10.5761 5.19671 318.41 -87.2052 -324.054
lowerback 29.0098 0.830887 -2.69523
upperback 6.29085 -0.296751 -0.0110436
thorax -8.92359 -0.321424 1.68865
lowerneck -15.2369 2.03804 2.17886
upperneck -2.16708 2.13452 -0.237984
head 1.94221 0.960996 -0.323268
rclavicle 4.03471e-015 2.49723e-015
rhumerus -32.6764 -15.6391 -69.3648
rradius 41.0217
rwrist 17.9212
rhand -25.6983 34.733
rfingers 7.12502
rthumb 0.837103 4.75485
lclavicle 4.03471e-015 2.49723e-015
lhumerus -28.3246 18.3507 69.0092
lradius 30.4598
lwrist -20.1749
lhand -11.8402 24.9306
lfingers 7.12502
lthumb 14.211 54.4244
rfemur -242.345 -140.689 179.894
rtibia 132.786
rfoot -37.1533 25.8811
rtoes -35.5231
lfemur -55.9854 43.9405 2.34433
ltibia 130.865
lfoot -29.3997 -46.5432
ltoes -22.4098
